HIERARCHY
ROOT SpineBase
{
  OFFSET 0.000000 0.000000 0.000000
  CHANNELS 6 Xposition Yposition Zposition Zrotation Xrotation Yrotation
  JOINT SpineMid
  {
    OFFSET 0.000000 26.140228 0.000000
    CHANNELS 3 Zrotation Xrotation Yrotation
    JOINT SpineShoulder
    {
      OFFSET -0.013360 19.473314 -0.582652
      CHANNELS 3 Zrotation Xrotation Yrotation
      JOINT Neck
      {
        OFFSET -0.021199 6.479226 -0.461306
        CHANNELS 3 Zrotation Xrotation Yrotation
        JOINT Head
        {
          OFFSET -3.126595 12.088884 0.803116
          CHANNELS 3 Zrotation Xrotation Yrotation
          End Site
          {
            OFFSET 0 0 0
          }
        }
      }
      JOINT ShoulderLeft
      {
        OFFSET -11.207119 -1.137212 5.202353
        CHANNELS 3 Zrotation Xrotation Yrotation
        JOINT ElbowLeft
        {
          OFFSET -2.081743 -23.362437 7.042662
          CHANNELS 3 Zrotation Xrotation Yrotation
          JOINT WristLeft
          {
            OFFSET -1.520805 -19.618414 -0.770334
            CHANNELS 3 Zrotation Xrotation Yrotation
            JOINT HandLeft
            {
              OFFSET -1.486953 -4.534156 0.376144
              CHANNELS 3 Zrotation Xrotation Yrotation
              JOINT HandTipLeft
              {
                OFFSET 0.501077 -4.817671 -3.880512
                CHANNELS 3 Zrotation Xrotation Yrotation
                End Site
                {
                  OFFSET 0 0 0
                }
              }
              JOINT ThumbLeft
              {
                OFFSET -0.624410 -0.300516 -1.603579
                CHANNELS 3 Zrotation Xrotation Yrotation
                End Site
                {
                  OFFSET 0 0 0
                }
              }
            }
          }
        }
      }
      JOINT ShoulderRight
      {
        OFFSET 11.147404 -1.513793 -6.853279
        CHANNELS 3 Zrotation Xrotation Yrotation
        JOINT ElbowRight
        {
          OFFSET 8.262255 -21.931148 0.222081
          CHANNELS 3 Zrotation Xrotation Yrotation
          JOINT WristRight
          {
            OFFSET 2.098847 -17.834390 -4.786237
            CHANNELS 3 Zrotation Xrotation Yrotation
            JOINT HandRight
            {
              OFFSET -0.932276 -6.427510 -0.553175
              CHANNELS 3 Zrotation Xrotation Yrotation
              JOINT HandTipRight
              {
                OFFSET -0.575757 -5.544797 -1.045434
                CHANNELS 3 Zrotation Xrotation Yrotation
                End Site
                {
                  OFFSET 0 0 0
                }
              }
              JOINT ThumbRight
              {
                OFFSET -2.133359 -1.352936 -1.564937
                CHANNELS 3 Zrotation Xrotation Yrotation
                End Site
                {
                  OFFSET 0 0 0
                }
              }
            }
          }
        }
      }
    }
  }
  JOINT HipLeft
  {
    OFFSET -5.233043 0.438917 -1.020357
    CHANNELS 3 Zrotation Xrotation Yrotation
    JOINT KneeLeft
    {
      OFFSET 3.243393 -32.503798 1.597926
      CHANNELS 3 Zrotation Xrotation Yrotation
      JOINT AnkleLeft
      {
        OFFSET 7.291001 -32.627874 3.971600
        CHANNELS 3 Zrotation Xrotation Yrotation
        JOINT FootLeft
        {
          OFFSET -3.990727 -2.704228 -9.630987
          CHANNELS 3 Zrotation Xrotation Yrotation
          End Site
          {
            OFFSET 0 0 0
          }
        }
      }
    }
  }
  JOINT HipRight
  {
    OFFSET 4.727071 1.255932 -4.874065
    CHANNELS 3 Zrotation Xrotation Yrotation
    JOINT KneeRight
    {
      OFFSET 5.680847 -31.229571 -1.428064
      CHANNELS 3 Zrotation Xrotation Yrotation
      JOINT AnkleRight
      {
        OFFSET 3.287411 -31.598183 5.732895
        CHANNELS 3 Zrotation Xrotation Yrotation
        JOINT FootRight
        {
          OFFSET -4.631563 -4.927151 -5.577583
          CHANNELS 3 Zrotation Xrotation Yrotation
          End Site
          {
            OFFSET 0 0 0
          }
        }
      }
    }
  }
}
MOTION
Frames: 10
Frame Time: 0.033333
24.342247 70.662026 361.724534 1.158072 1.602266 18.984416 0.723572 1.185191 -18.971998 -0.365088 0.314153 0.030467 5.646179 -6.882692 -0.890351 0.000000 0.000000 0.000000 -2.342316 -18.486266 0.614231 -12.178295 6.090977 2.600930 0.834515 22.878478 -4.278278 -3.129098 -34.698930 14.212639 0.000000 0.000000 0.000000 0.000000 0.000000 0.000000 7.902695 -6.613102 -0.492919 -5.527238 4.218393 0.349539 -3.327249 16.700563 -1.818863 0.122581 -14.397288 2.255237 0.000000 0.000000 0.000000 0.000000 0.000000 0.000000 5.698090 -3.822973 -18.336367 -11.794136 0.885814 -0.658354 3.296312 2.558554 -1.589886 0.000000 0.000000 0.000000 -34.255211 39.646381 1.242013 9.158098 1.355334 -7.204852 25.465869 -9.250703 -4.360173 0.000000 0.000000 0.000000
24.350899 70.755999 361.659731 1.230967 2.061954 19.434445 0.757687 1.213290 -19.425516 -0.292735 0.240591 0.041179 6.813030 -6.719276 -0.710669 0.000000 0.000000 0.000000 -4.074340 -17.144715 -0.277252 -13.136451 6.902720 3.237784 0.833952 24.484942 -5.055890 -1.544098 -39.041149 16.412260 0.000000 0.000000 0.000000 0.000000 0.000000 0.000000 7.730194 -7.063596 -0.457282 -5.330037 5.501070 0.402376 -2.807502 16.791137 -2.297431 -1.033611 -16.087196 2.371463 0.000000 0.000000 0.000000 0.000000 0.000000 0.000000 5.248800 -4.351498 -18.774918 -11.381377 1.717829 -0.410217 3.285464 0.122942 -0.202464 0.000000 0.000000 0.000000 -39.354290 43.592617 5.240017 4.963612 4.618887 -9.666609 33.288013 -13.023254 1.244149 0.000000 0.000000 0.000000
24.356687 70.873823 361.552136 1.386524 2.593711 19.733368 0.781935 1.181728 -19.727550 -0.174326 0.234254 0.060732 7.494584 -6.517966 -0.520052 0.000000 0.000000 0.000000 -5.722017 -15.859988 -1.068540 -14.038614 8.264979 3.832601 0.726534 25.633723 -5.845385 0.159761 -41.467193 18.876769 0.000000 0.000000 0.000000 0.000000 0.000000 0.000000 7.513681 -7.478412 -0.382586 -4.991746 7.085959 0.358862 -2.785649 14.167686 -2.348968 -0.631537 -18.123554 2.638135 0.000000 0.000000 0.000000 0.000000 0.000000 0.000000 4.387174 -3.232584 -19.078919 -9.494016 -0.435789 -0.755310 3.096500 -0.073216 -1.103405 0.000000 0.000000 0.000000 -46.188201 47.038291 10.485800 4.943849 4.903275 -11.165071 36.465288 -16.790056 6.474773 0.000000 0.000000 0.000000
24.373115 71.060976 361.470595 1.610356 3.156729 20.351983 0.755369 1.081247 -20.351114 -0.071012 0.229458 0.081097 8.107122 -6.333324 -0.349503 0.000000 0.000000 0.000000 -6.809822 -14.470237 -1.587367 -15.308103 9.256621 4.268093 1.910586 26.526403 -6.718717 0.135238 -40.559822 21.020838 0.000000 0.000000 0.000000 0.000000 0.000000 0.000000 7.360804 -7.657152 -0.253574 -4.758610 9.124990 0.294796 -2.689582 8.309903 -2.052495 -0.335031 -16.090280 2.344980 0.000000 0.000000 0.000000 0.000000 0.000000 0.000000 4.130016 -3.134583 -19.640218 -9.670428 -0.093073 -0.673321 2.804879 0.130324 -1.136003 0.000000 0.000000 0.000000 -55.537896 49.808344 17.025705 8.245160 3.890810 -11.268591 37.135853 -17.543777 8.274461 0.000000 0.000000 0.000000
24.384941 71.307403 361.404243 1.899024 3.738291 21.239158 0.734632 0.911841 -21.243173 0.032974 0.232860 0.105781 8.153899 -6.323020 -0.242951 0.000000 0.000000 0.000000 -7.281639 -13.048909 -1.792116 -16.346475 10.244936 4.371512 2.867763 27.487890 -7.612674 -0.862507 -44.601045 22.237496 0.000000 0.000000 0.000000 0.000000 0.000000 0.000000 7.251257 -7.521210 -0.043911 -4.282344 10.365719 -0.053524 -3.875488 4.709921 -1.809019 2.040455 -15.467083 2.344599 0.000000 0.000000 0.000000 0.000000 0.000000 0.000000 3.497758 -3.150159 -20.520113 -9.762003 1.184851 -0.365931 1.688195 0.919147 0.106524 0.000000 0.000000 0.000000 -57.965311 52.199324 19.207836 7.194301 2.487949 -13.436151 37.644129 -17.167354 10.301101 0.000000 0.000000 0.000000
24.387801 71.591518 361.343322 2.175580 4.289109 22.155126 0.684022 0.703478 -22.164627 0.101437 0.236415 0.126028 8.009644 -6.299865 -0.161438 0.000000 0.000000 0.000000 -7.161339 -11.739581 -1.742387 -17.394893 10.764174 4.216683 3.334768 27.076361 -8.044998 -2.056405 -44.777139 23.005492 0.000000 0.000000 0.000000 0.000000 0.000000 0.000000 7.108676 -7.168404 0.188490 -3.942848 11.334524 -0.381640 -5.398220 1.855517 -1.736792 4.624629 -13.355100 2.053127 0.000000 0.000000 0.000000 0.000000 0.000000 0.000000 2.799306 -3.318676 -21.453101 -9.060119 -0.692234 -0.752678 1.941062 1.338993 -0.156849 0.000000 0.000000 0.000000 -61.462600 54.220988 21.914145 9.303198 -1.129409 -14.336598 31.691230 -14.044838 9.764906 0.000000 0.000000 0.000000
24.375337 71.883823 361.307445 2.406832 4.717956 22.967070 0.587579 0.518147 -22.983930 0.137197 0.249770 0.138655 7.837131 -6.242123 -0.101383 0.000000 0.000000 0.000000 -6.717002 -10.873331 -1.557978 -17.666932 11.869251 3.949994 3.868672 27.317179 -8.726864 -1.939923 -43.149685 23.561512 0.000000 0.000000 0.000000 0.000000 0.000000 0.000000 7.015357 -6.639039 0.428036 -3.126857 11.552728 -0.925150 -8.919699 2.450465 -1.930811 9.004027 -11.783830 2.075800 0.000000 0.000000 0.000000 0.000000 0.000000 0.000000 2.266621 -3.550626 -22.283270 -8.826882 -0.486165 -0.674523 1.893817 1.163819 -0.491718 0.000000 0.000000 0.000000 -62.898096 55.360823 22.688226 10.710162 -3.143113 -14.485067 28.201006 -14.658431 10.787941 0.000000 0.000000 0.000000
24.359374 72.130759 361.316000 2.543941 4.998576 23.445667 0.456116 0.319768 -23.467277 0.112950 0.178709 0.141098 7.755383 -5.973086 -0.073284 0.000000 0.000000 0.000000 -5.787499 -10.173567 -1.178096 -18.081930 12.895151 3.614240 6.645432 27.198453 -9.458329 -5.181140 -41.950525 22.633605 0.000000 0.000000 0.000000 0.000000 0.000000 0.000000 7.080560 -5.797883 0.661695 -2.632805 10.973023 -1.397111 -12.504524 5.630213 -2.183800 13.319479 -12.207596 2.813352 0.000000 0.000000 0.000000 0.000000 0.000000 0.000000 1.904882 -3.868503 -22.782305 -8.769670 -0.046645 -0.565804 2.006804 0.955697 -1.079144 0.000000 0.000000 0.000000 -61.729995 54.577168 20.323234 12.031086 -2.688464 -13.067010 25.568910 -13.956325 9.865923 0.000000 0.000000 0.000000
24.334772 72.293520 361.390672 2.642706 5.242419 23.714379 0.352272 0.193567 -23.741964 0.085179 0.121171 0.141498 7.493610 -6.027946 -0.083958 0.000000 0.000000 0.000000 -4.478719 -9.205347 -0.687914 -18.355077 14.293142 3.074849 10.247902 25.230904 -9.852973 -8.599696 -39.381987 20.756015 0.000000 0.000000 0.000000 0.000000 0.000000 0.000000 7.168458 -5.022995 0.899859 -2.974587 10.988141 -1.526344 -13.661071 8.434557 -2.702694 14.857692 -13.675470 3.758189 0.000000 0.000000 0.000000 0.000000 0.000000 0.000000 1.456188 -4.255459 -23.095325 -8.407895 0.598393 -0.377644 1.790374 0.594871 -1.205388 0.000000 0.000000 0.000000 -54.279423 52.847654 13.438871 8.074921 0.487186 -13.351695 28.629110 -11.965071 8.375050 0.000000 0.000000 0.000000
24.310440 72.353769 361.515473 2.686298 5.397298 23.621889 0.290141 0.139958 -23.654251 0.042885 0.058853 0.138436 7.593597 -5.998253 -0.066987 0.000000 0.000000 0.000000 -3.265823 -8.144433 -0.279488 -18.032790 14.346125 2.336019 14.033200 23.373595 -9.818337 -13.140718 -38.213365 18.105438 0.000000 0.000000 0.000000 0.000000 0.000000 0.000000 7.271125 -4.281931 1.124656 -4.540103 11.214971 -1.200769 -11.784477 11.306370 -3.546995 13.776905 -14.150274 4.304596 0.000000 0.000000 0.000000 0.000000 0.000000 0.000000 1.282657 -4.814921 -23.024863 -8.709527 1.782699 -0.135154 1.996815 -0.144699 -1.373196 0.000000 0.000000 0.000000 -46.135434 51.674850 7.766978 3.698750 0.513076 -15.016247 28.624713 -9.006091 7.112483 0.000000 0.000000 0.000000
